<?xml version="1.0" standalone="no"?>
<!DOCTYPE svg PUBLIC "-//W3C//DTD SVG 20010904//EN"
 "http://www.w3.org/TR/2001/REC-SVG-20010904/DTD/svg10.dtd">
<svg version="1.0" xmlns="http://www.w3.org/2000/svg"
 width="146.000000pt" height="146.000000pt" viewBox="0 0 146.000000 146.000000"
 preserveAspectRatio="xMidYMid meet">
<metadata>
Created by potrace 1.14, written by Peter Selinger 2001-2017
</metadata>
<g transform="translate(0.000000,146.000000) scale(0.100000,-0.100000)"
fill="#000000" stroke="none">
<path d="M783 1368 c-6 -7 -21 -33 -33 -58 -13 -25 -28 -48 -34 -52 -12 -8
-46 19 -46 36 0 6 -13 26 -28 44 -26 31 -31 33 -62 25 -35 -9 -35 -10 -44 -81
-5 -39 -15 -73 -21 -76 -7 -2 -38 14 -69 36 l-56 39 -30 -21 c-35 -25 -36 -33
-11 -105 26 -72 16 -80 -72 -61 -64 13 -67 13 -80 -8 -28 -43 -26 -52 19 -104
47 -54 50 -81 8 -83 -13 -1 -27 -2 -31 -3 -5 -1 -25 -5 -45 -9 -26 -5 -38 -13
-39 -25 0 -9 -2 -27 -5 -39 -3 -19 6 -28 55 -52 80 -41 82 -53 17 -95 -67 -43
-70 -48 -56 -91 10 -31 16 -35 48 -36 124 -5 127 -9 73 -89 l-41 -62 23 -28
c12 -16 25 -29 29 -29 3 -1 33 7 66 18 73 22 87 16 78 -33 -4 -20 -6 -37 -6
-38 1 -2 -3 -15 -9 -30 -12 -32 4 -54 45 -64 20 -5 35 3 75 36 27 23 56 40 63
37 7 -3 17 -27 21 -53 12 -83 20 -94 63 -94 37 0 39 2 67 60 17 36 35 60 44
60 9 -1 33 -27 53 -60 36 -58 37 -59 69 -50 45 13 47 17 52 82 8 91 14 94 86
43 55 -40 67 -42 99 -16 26 23 26 29 3 101 -25 74 -17 82 59 63 69 -18 84 -14
104 25 14 28 14 30 -31 81 -25 28 -43 58 -40 65 3 7 35 19 72 26 69 13 74 17
78 64 2 26 -5 33 -60 63 -35 19 -63 38 -63 41 0 14 17 29 67 61 49 30 52 35
46 64 -3 18 -8 35 -12 39 -7 8 -53 16 -102 17 -53 1 -56 23 -14 81 40 54 41
61 18 96 -15 23 -21 25 -56 20 -21 -4 -52 -13 -67 -21 -25 -13 -30 -13 -41 1
-10 12 -10 26 -1 65 17 73 15 83 -18 103 -31 17 -31 17 -63 -7 -18 -14 -41
-33 -52 -44 -36 -33 -52 -19 -66 58 -9 51 -16 69 -28 69 -9 0 -25 3 -37 6 -11
3 -25 -1 -31 -8z m88 -264 c174 -67 272 -252 235 -441 -20 -100 -116 -220
-210 -262 -266 -117 -555 79 -542 367 7 159 123 303 277 346 66 18 178 14 240
-10z"/>
<path d="M618 1082 c-98 -35 -167 -101 -212 -204 -35 -78 -32 -198 5 -278 45
-97 134 -169 241 -196 158 -41 331 42 405 194 23 49 27 69 27 147 0 77 -4 98
-26 145 -45 93 -122 164 -212 194 -63 20 -167 19 -228 -2z m243 -137 c77 -51
114 -126 106 -216 -11 -120 -96 -205 -214 -216 -91 -8 -169 30 -218 107 -73
115 -31 274 88 337 71 37 173 32 238 -12z"/>
</g>
</svg>
